<svg width="40" height="40" viewBox="0 0 40 40" fill="none" xmlns="http://www.w3.org/2000/svg">
<rect width="40" height="40" rx="5" fill="#5AA080"/>
<path d="M15.4444 10.6667V24.6667M15.4444 10.6667H22.1111C23.2899 10.6667 24.4203 11.1583 25.2538 12.0335C26.0873 12.9087 26.5556 14.0957 26.5556 15.3333C26.5556 16.571 26.0873 17.758 25.2538 18.6332C24.4203 19.5083 23.2899 20 22.1111 20H15.4444V10.6667ZM15.4444 24.6667C14.2657 24.6667 13.1352 25.1583 12.3017 26.0335C11.4683 26.9087 11 28.0957 11 29.3333M15.4444 24.6667H24.3333C26.1014 24.6667 27.7971 23.6833 29.0474 21.933C30.2976 20.1827 31 17.8087 31 15.3333C31 12.858 30.2976 10.484 29.0474 8.73367C27.7971 6.98333 26.1014 6 24.3333 6H11V29.3333M11 29.3333C11 30.571 11.4683 31.758 12.3017 32.6332C13.1352 33.5083 14.2657 34 15.4444 34V27" stroke="#F3F6FF" stroke-width="2" stroke-linecap="square" stroke-linejoin="round"/>
</svg>
